<mxfile host="app.diagrams.net" modified="2024-01-02T03:39:02.102Z" agent="Mozilla/5.0 (Windows NT 10.0; Win64; x64) AppleWebKit/537.36 (KHTML, like Gecko) Chrome/120.0.0.0 Safari/537.36 Edg/120.0.0.0" etag="IGWq-OsOJ-xQ1fIsEq5M" version="22.1.16" type="device">
  <diagram name="Page-1" id="R1H3UA-tNkKQL1K4CGxP">
    <mxGraphModel dx="1954" dy="619" grid="1" gridSize="10" guides="1" tooltips="1" connect="1" arrows="1" fold="1" page="1" pageScale="1" pageWidth="850" pageHeight="1100" math="0" shadow="0">
      <root>
        <mxCell id="0" />
        <mxCell id="1" parent="0" />
        <mxCell id="XvCOI-l9SwH52kkt3zpC-1" value="Book" style="rounded=1;whiteSpace=wrap;html=1;" parent="1" vertex="1">
          <mxGeometry x="210" y="270" width="120" height="60" as="geometry" />
        </mxCell>
        <mxCell id="XvCOI-l9SwH52kkt3zpC-2" value="Number of pages&amp;nbsp;" style="ellipse;whiteSpace=wrap;html=1;" parent="1" vertex="1">
          <mxGeometry x="30" y="190" width="120" height="80" as="geometry" />
        </mxCell>
        <mxCell id="XvCOI-l9SwH52kkt3zpC-3" value="Title&amp;nbsp;" style="ellipse;whiteSpace=wrap;html=1;" parent="1" vertex="1">
          <mxGeometry x="170" y="160" width="120" height="80" as="geometry" />
        </mxCell>
        <mxCell id="XvCOI-l9SwH52kkt3zpC-4" value="Publisher&amp;nbsp;" style="ellipse;whiteSpace=wrap;html=1;" parent="1" vertex="1">
          <mxGeometry x="305" y="160" width="120" height="80" as="geometry" />
        </mxCell>
        <mxCell id="XvCOI-l9SwH52kkt3zpC-5" value="Publication date&amp;nbsp;" style="ellipse;whiteSpace=wrap;html=1;" parent="1" vertex="1">
          <mxGeometry x="50" y="320" width="120" height="80" as="geometry" />
        </mxCell>
        <mxCell id="XvCOI-l9SwH52kkt3zpC-6" value="" style="endArrow=none;html=1;rounded=0;" parent="1" source="XvCOI-l9SwH52kkt3zpC-5" target="XvCOI-l9SwH52kkt3zpC-1" edge="1">
          <mxGeometry width="50" height="50" relative="1" as="geometry">
            <mxPoint x="400" y="340" as="sourcePoint" />
            <mxPoint x="450" y="290" as="targetPoint" />
          </mxGeometry>
        </mxCell>
        <mxCell id="XvCOI-l9SwH52kkt3zpC-7" value="" style="endArrow=none;html=1;rounded=0;" parent="1" source="XvCOI-l9SwH52kkt3zpC-2" target="XvCOI-l9SwH52kkt3zpC-1" edge="1">
          <mxGeometry width="50" height="50" relative="1" as="geometry">
            <mxPoint x="172" y="351" as="sourcePoint" />
            <mxPoint x="220" y="333" as="targetPoint" />
          </mxGeometry>
        </mxCell>
        <mxCell id="XvCOI-l9SwH52kkt3zpC-8" value="" style="endArrow=none;html=1;rounded=0;" parent="1" source="XvCOI-l9SwH52kkt3zpC-3" target="XvCOI-l9SwH52kkt3zpC-1" edge="1">
          <mxGeometry width="50" height="50" relative="1" as="geometry">
            <mxPoint x="182" y="361" as="sourcePoint" />
            <mxPoint x="230" y="343" as="targetPoint" />
          </mxGeometry>
        </mxCell>
        <mxCell id="XvCOI-l9SwH52kkt3zpC-9" value="" style="endArrow=none;html=1;rounded=0;" parent="1" source="XvCOI-l9SwH52kkt3zpC-4" target="XvCOI-l9SwH52kkt3zpC-1" edge="1">
          <mxGeometry width="50" height="50" relative="1" as="geometry">
            <mxPoint x="255" y="249" as="sourcePoint" />
            <mxPoint x="268" y="280" as="targetPoint" />
          </mxGeometry>
        </mxCell>
        <mxCell id="XvCOI-l9SwH52kkt3zpC-10" value="Media&amp;nbsp;" style="rounded=1;whiteSpace=wrap;html=1;" parent="1" vertex="1">
          <mxGeometry x="620" y="230" width="120" height="60" as="geometry" />
        </mxCell>
        <mxCell id="XvCOI-l9SwH52kkt3zpC-11" value="Media_id" style="ellipse;whiteSpace=wrap;html=1;" parent="1" vertex="1">
          <mxGeometry x="440" y="170" width="120" height="80" as="geometry" />
        </mxCell>
        <mxCell id="XvCOI-l9SwH52kkt3zpC-12" value="Price&amp;nbsp;" style="ellipse;whiteSpace=wrap;html=1;" parent="1" vertex="1">
          <mxGeometry x="550" y="110" width="120" height="80" as="geometry" />
        </mxCell>
        <mxCell id="XvCOI-l9SwH52kkt3zpC-13" value="Type&amp;nbsp;" style="ellipse;whiteSpace=wrap;html=1;" parent="1" vertex="1">
          <mxGeometry x="930" y="210" width="120" height="80" as="geometry" />
        </mxCell>
        <mxCell id="XvCOI-l9SwH52kkt3zpC-15" value="Name&amp;nbsp;" style="ellipse;whiteSpace=wrap;html=1;" parent="1" vertex="1">
          <mxGeometry x="840" y="140" width="120" height="80" as="geometry" />
        </mxCell>
        <mxCell id="XvCOI-l9SwH52kkt3zpC-16" value="" style="endArrow=none;html=1;rounded=0;" parent="1" source="XvCOI-l9SwH52kkt3zpC-11" target="XvCOI-l9SwH52kkt3zpC-10" edge="1">
          <mxGeometry width="50" height="50" relative="1" as="geometry">
            <mxPoint x="540" y="340" as="sourcePoint" />
            <mxPoint x="623.1635631891102" y="298.42591130495157" as="targetPoint" />
          </mxGeometry>
        </mxCell>
        <mxCell id="XvCOI-l9SwH52kkt3zpC-17" value="" style="endArrow=none;html=1;rounded=0;" parent="1" source="XvCOI-l9SwH52kkt3zpC-12" target="XvCOI-l9SwH52kkt3zpC-10" edge="1">
          <mxGeometry width="50" height="50" relative="1" as="geometry">
            <mxPoint x="569" y="250" as="sourcePoint" />
            <mxPoint x="660" y="290" as="targetPoint" />
          </mxGeometry>
        </mxCell>
        <mxCell id="XvCOI-l9SwH52kkt3zpC-18" value="" style="endArrow=none;html=1;rounded=0;" parent="1" source="XvCOI-l9SwH52kkt3zpC-15" target="XvCOI-l9SwH52kkt3zpC-10" edge="1">
          <mxGeometry width="50" height="50" relative="1" as="geometry">
            <mxPoint x="667" y="250" as="sourcePoint" />
            <mxPoint x="697.1323335962177" y="298.580333110893" as="targetPoint" />
          </mxGeometry>
        </mxCell>
        <mxCell id="XvCOI-l9SwH52kkt3zpC-19" value="" style="endArrow=none;html=1;rounded=0;" parent="1" source="XvCOI-l9SwH52kkt3zpC-13" target="XvCOI-l9SwH52kkt3zpC-10" edge="1">
          <mxGeometry width="50" height="50" relative="1" as="geometry">
            <mxPoint x="763" y="261" as="sourcePoint" />
            <mxPoint x="715.6345102264702" y="315.0214780159504" as="targetPoint" />
          </mxGeometry>
        </mxCell>
        <mxCell id="XvCOI-l9SwH52kkt3zpC-20" value="Is" style="rhombus;whiteSpace=wrap;html=1;" parent="1" vertex="1">
          <mxGeometry x="390" y="270" width="130" height="80" as="geometry" />
        </mxCell>
        <mxCell id="XvCOI-l9SwH52kkt3zpC-23" value="CD" style="rounded=0;whiteSpace=wrap;html=1;" parent="1" vertex="1">
          <mxGeometry x="1120" y="310" width="120" height="60" as="geometry" />
        </mxCell>
        <mxCell id="XvCOI-l9SwH52kkt3zpC-25" value="" style="endArrow=classic;html=1;rounded=0;" parent="1" source="XvCOI-l9SwH52kkt3zpC-1" target="XvCOI-l9SwH52kkt3zpC-20" edge="1">
          <mxGeometry width="50" height="50" relative="1" as="geometry">
            <mxPoint x="360" y="350" as="sourcePoint" />
            <mxPoint x="410" y="300" as="targetPoint" />
          </mxGeometry>
        </mxCell>
        <mxCell id="XvCOI-l9SwH52kkt3zpC-26" value="Is" style="rhombus;whiteSpace=wrap;html=1;" parent="1" vertex="1">
          <mxGeometry x="880" y="300" width="130" height="80" as="geometry" />
        </mxCell>
        <mxCell id="XvCOI-l9SwH52kkt3zpC-27" value="" style="endArrow=classic;html=1;rounded=0;" parent="1" source="XvCOI-l9SwH52kkt3zpC-23" target="XvCOI-l9SwH52kkt3zpC-26" edge="1">
          <mxGeometry width="50" height="50" relative="1" as="geometry">
            <mxPoint x="870" y="440" as="sourcePoint" />
            <mxPoint x="920" y="390" as="targetPoint" />
          </mxGeometry>
        </mxCell>
        <mxCell id="XvCOI-l9SwH52kkt3zpC-28" value="" style="endArrow=none;html=1;rounded=0;" parent="1" source="XvCOI-l9SwH52kkt3zpC-20" target="XvCOI-l9SwH52kkt3zpC-10" edge="1">
          <mxGeometry width="50" height="50" relative="1" as="geometry">
            <mxPoint x="570" y="250" as="sourcePoint" />
            <mxPoint x="639" y="300" as="targetPoint" />
          </mxGeometry>
        </mxCell>
        <mxCell id="XvCOI-l9SwH52kkt3zpC-29" value="" style="endArrow=none;html=1;rounded=0;" parent="1" source="XvCOI-l9SwH52kkt3zpC-10" target="XvCOI-l9SwH52kkt3zpC-26" edge="1">
          <mxGeometry width="50" height="50" relative="1" as="geometry">
            <mxPoint x="541" y="316" as="sourcePoint" />
            <mxPoint x="620" y="324" as="targetPoint" />
          </mxGeometry>
        </mxCell>
        <mxCell id="Qv5DYJu_NGLK9d-pOGgD-1" value="Covertype&amp;nbsp;" style="ellipse;whiteSpace=wrap;html=1;" parent="1" vertex="1">
          <mxGeometry x="130" y="420" width="120" height="50" as="geometry" />
        </mxCell>
        <mxCell id="Qv5DYJu_NGLK9d-pOGgD-3" value="" style="endArrow=none;html=1;rounded=0;" parent="1" source="Qv5DYJu_NGLK9d-pOGgD-1" target="XvCOI-l9SwH52kkt3zpC-1" edge="1">
          <mxGeometry width="50" height="50" relative="1" as="geometry">
            <mxPoint x="540" y="350" as="sourcePoint" />
            <mxPoint x="590" y="300" as="targetPoint" />
          </mxGeometry>
        </mxCell>
        <mxCell id="Qv5DYJu_NGLK9d-pOGgD-5" value="Category&amp;nbsp;" style="ellipse;whiteSpace=wrap;html=1;" parent="1" vertex="1">
          <mxGeometry x="340" y="390" width="120" height="50" as="geometry" />
        </mxCell>
        <mxCell id="Qv5DYJu_NGLK9d-pOGgD-10" value="" style="endArrow=none;html=1;rounded=0;" parent="1" source="Qv5DYJu_NGLK9d-pOGgD-5" target="XvCOI-l9SwH52kkt3zpC-1" edge="1">
          <mxGeometry width="50" height="50" relative="1" as="geometry">
            <mxPoint x="540" y="350" as="sourcePoint" />
            <mxPoint x="590" y="300" as="targetPoint" />
          </mxGeometry>
        </mxCell>
        <mxCell id="Qv5DYJu_NGLK9d-pOGgD-11" value="Value&amp;nbsp;" style="ellipse;whiteSpace=wrap;html=1;" parent="1" vertex="1">
          <mxGeometry x="720" y="90" width="120" height="80" as="geometry" />
        </mxCell>
        <mxCell id="Qv5DYJu_NGLK9d-pOGgD-12" value="" style="endArrow=none;html=1;rounded=0;" parent="1" source="XvCOI-l9SwH52kkt3zpC-10" target="Qv5DYJu_NGLK9d-pOGgD-11" edge="1">
          <mxGeometry width="50" height="50" relative="1" as="geometry">
            <mxPoint x="540" y="350" as="sourcePoint" />
            <mxPoint x="590" y="300" as="targetPoint" />
          </mxGeometry>
        </mxCell>
        <mxCell id="Qv5DYJu_NGLK9d-pOGgD-13" value="Quantity&amp;nbsp;" style="ellipse;whiteSpace=wrap;html=1;" parent="1" vertex="1">
          <mxGeometry x="510" y="360" width="120" height="80" as="geometry" />
        </mxCell>
        <mxCell id="Qv5DYJu_NGLK9d-pOGgD-14" value="Fast shipping&amp;nbsp;" style="ellipse;whiteSpace=wrap;html=1;" parent="1" vertex="1">
          <mxGeometry x="830" y="380" width="120" height="80" as="geometry" />
        </mxCell>
        <mxCell id="Qv5DYJu_NGLK9d-pOGgD-15" value="" style="endArrow=none;html=1;rounded=0;" parent="1" source="Qv5DYJu_NGLK9d-pOGgD-13" target="XvCOI-l9SwH52kkt3zpC-10" edge="1">
          <mxGeometry width="50" height="50" relative="1" as="geometry">
            <mxPoint x="540" y="350" as="sourcePoint" />
            <mxPoint x="590" y="300" as="targetPoint" />
          </mxGeometry>
        </mxCell>
        <mxCell id="Qv5DYJu_NGLK9d-pOGgD-16" value="" style="endArrow=none;html=1;rounded=0;" parent="1" source="Qv5DYJu_NGLK9d-pOGgD-14" target="XvCOI-l9SwH52kkt3zpC-10" edge="1">
          <mxGeometry width="50" height="50" relative="1" as="geometry">
            <mxPoint x="615" y="378" as="sourcePoint" />
            <mxPoint x="647" y="350" as="targetPoint" />
          </mxGeometry>
        </mxCell>
        <mxCell id="Qv5DYJu_NGLK9d-pOGgD-19" value="record label&amp;nbsp;" style="ellipse;whiteSpace=wrap;html=1;" parent="1" vertex="1">
          <mxGeometry x="1140" y="180" width="120" height="80" as="geometry" />
        </mxCell>
        <mxCell id="Qv5DYJu_NGLK9d-pOGgD-20" value="Artist&amp;nbsp;" style="ellipse;whiteSpace=wrap;html=1;" parent="1" vertex="1">
          <mxGeometry x="1330" y="190" width="120" height="80" as="geometry" />
        </mxCell>
        <mxCell id="Qv5DYJu_NGLK9d-pOGgD-21" value="Music type&amp;nbsp;" style="ellipse;whiteSpace=wrap;html=1;" parent="1" vertex="1">
          <mxGeometry x="1350" y="300" width="120" height="80" as="geometry" />
        </mxCell>
        <mxCell id="Qv5DYJu_NGLK9d-pOGgD-22" value="release date&amp;nbsp;" style="ellipse;whiteSpace=wrap;html=1;" parent="1" vertex="1">
          <mxGeometry x="1310" y="405" width="120" height="80" as="geometry" />
        </mxCell>
        <mxCell id="Qv5DYJu_NGLK9d-pOGgD-23" value="" style="endArrow=none;html=1;rounded=0;" parent="1" source="Qv5DYJu_NGLK9d-pOGgD-19" target="XvCOI-l9SwH52kkt3zpC-23" edge="1">
          <mxGeometry width="50" height="50" relative="1" as="geometry">
            <mxPoint x="942" y="271" as="sourcePoint" />
            <mxPoint x="740" y="309" as="targetPoint" />
          </mxGeometry>
        </mxCell>
        <mxCell id="Qv5DYJu_NGLK9d-pOGgD-24" value="" style="endArrow=none;html=1;rounded=0;" parent="1" source="Qv5DYJu_NGLK9d-pOGgD-20" target="XvCOI-l9SwH52kkt3zpC-23" edge="1">
          <mxGeometry width="50" height="50" relative="1" as="geometry">
            <mxPoint x="1203" y="270" as="sourcePoint" />
            <mxPoint x="1195" y="320" as="targetPoint" />
          </mxGeometry>
        </mxCell>
        <mxCell id="Qv5DYJu_NGLK9d-pOGgD-27" value="" style="endArrow=none;html=1;rounded=0;" parent="1" source="Qv5DYJu_NGLK9d-pOGgD-21" target="XvCOI-l9SwH52kkt3zpC-23" edge="1">
          <mxGeometry width="50" height="50" relative="1" as="geometry">
            <mxPoint x="1353" y="265" as="sourcePoint" />
            <mxPoint x="1247" y="320" as="targetPoint" />
          </mxGeometry>
        </mxCell>
        <mxCell id="Qv5DYJu_NGLK9d-pOGgD-28" value="" style="endArrow=none;html=1;rounded=0;" parent="1" source="Qv5DYJu_NGLK9d-pOGgD-22" target="XvCOI-l9SwH52kkt3zpC-23" edge="1">
          <mxGeometry width="50" height="50" relative="1" as="geometry">
            <mxPoint x="1360" y="350" as="sourcePoint" />
            <mxPoint x="1250" y="350" as="targetPoint" />
          </mxGeometry>
        </mxCell>
        <mxCell id="Qv5DYJu_NGLK9d-pOGgD-29" value="Is" style="rhombus;whiteSpace=wrap;html=1;" parent="1" vertex="1">
          <mxGeometry x="830" y="510" width="130" height="80" as="geometry" />
        </mxCell>
        <mxCell id="Qv5DYJu_NGLK9d-pOGgD-30" value="" style="endArrow=none;html=1;rounded=0;" parent="1" source="XvCOI-l9SwH52kkt3zpC-10" target="Qv5DYJu_NGLK9d-pOGgD-29" edge="1">
          <mxGeometry width="50" height="50" relative="1" as="geometry">
            <mxPoint x="740" y="327" as="sourcePoint" />
            <mxPoint x="880" y="344" as="targetPoint" />
          </mxGeometry>
        </mxCell>
        <mxCell id="Qv5DYJu_NGLK9d-pOGgD-31" value="DVD&amp;nbsp;" style="rounded=0;whiteSpace=wrap;html=1;" parent="1" vertex="1">
          <mxGeometry x="1130" y="540" width="120" height="60" as="geometry" />
        </mxCell>
        <mxCell id="Qv5DYJu_NGLK9d-pOGgD-32" value="Disc type&amp;nbsp;" style="ellipse;whiteSpace=wrap;html=1;" parent="1" vertex="1">
          <mxGeometry x="1290" y="520" width="120" height="80" as="geometry" />
        </mxCell>
        <mxCell id="Qv5DYJu_NGLK9d-pOGgD-33" value="Director&amp;nbsp;" style="ellipse;whiteSpace=wrap;html=1;" parent="1" vertex="1">
          <mxGeometry x="1300" y="640" width="120" height="80" as="geometry" />
        </mxCell>
        <mxCell id="Qv5DYJu_NGLK9d-pOGgD-34" value="Runtime&amp;nbsp;&amp;nbsp;" style="ellipse;whiteSpace=wrap;html=1;" parent="1" vertex="1">
          <mxGeometry x="1155" y="670" width="120" height="80" as="geometry" />
        </mxCell>
        <mxCell id="Qv5DYJu_NGLK9d-pOGgD-35" value="Studio&amp;nbsp;" style="ellipse;whiteSpace=wrap;html=1;" parent="1" vertex="1">
          <mxGeometry x="1170" y="410" width="120" height="80" as="geometry" />
        </mxCell>
        <mxCell id="Qv5DYJu_NGLK9d-pOGgD-37" value="Subtitles" style="ellipse;whiteSpace=wrap;html=1;" parent="1" vertex="1">
          <mxGeometry x="1000" y="410" width="120" height="80" as="geometry" />
        </mxCell>
        <mxCell id="Qv5DYJu_NGLK9d-pOGgD-38" value="" style="endArrow=classic;html=1;rounded=0;" parent="1" source="Qv5DYJu_NGLK9d-pOGgD-31" target="Qv5DYJu_NGLK9d-pOGgD-29" edge="1">
          <mxGeometry width="50" height="50" relative="1" as="geometry">
            <mxPoint x="1150" y="549" as="sourcePoint" />
            <mxPoint x="1020" y="549" as="targetPoint" />
          </mxGeometry>
        </mxCell>
        <mxCell id="Qv5DYJu_NGLK9d-pOGgD-39" value="" style="endArrow=none;html=1;rounded=0;" parent="1" source="Qv5DYJu_NGLK9d-pOGgD-31" target="Qv5DYJu_NGLK9d-pOGgD-37" edge="1">
          <mxGeometry width="50" height="50" relative="1" as="geometry">
            <mxPoint x="1334" y="429" as="sourcePoint" />
            <mxPoint x="1244" y="380" as="targetPoint" />
          </mxGeometry>
        </mxCell>
        <mxCell id="Qv5DYJu_NGLK9d-pOGgD-40" value="" style="endArrow=none;html=1;rounded=0;" parent="1" source="Qv5DYJu_NGLK9d-pOGgD-31" target="Qv5DYJu_NGLK9d-pOGgD-35" edge="1">
          <mxGeometry width="50" height="50" relative="1" as="geometry">
            <mxPoint x="1168" y="550" as="sourcePoint" />
            <mxPoint x="1105" y="492" as="targetPoint" />
          </mxGeometry>
        </mxCell>
        <mxCell id="Qv5DYJu_NGLK9d-pOGgD-42" value="" style="endArrow=none;html=1;rounded=0;" parent="1" source="Qv5DYJu_NGLK9d-pOGgD-31" target="Qv5DYJu_NGLK9d-pOGgD-32" edge="1">
          <mxGeometry width="50" height="50" relative="1" as="geometry">
            <mxPoint x="1210" y="550" as="sourcePoint" />
            <mxPoint x="1227" y="499" as="targetPoint" />
          </mxGeometry>
        </mxCell>
        <mxCell id="Qv5DYJu_NGLK9d-pOGgD-43" value="" style="endArrow=none;html=1;rounded=0;entryX=0;entryY=0;entryDx=0;entryDy=0;" parent="1" source="Qv5DYJu_NGLK9d-pOGgD-31" target="Qv5DYJu_NGLK9d-pOGgD-33" edge="1">
          <mxGeometry width="50" height="50" relative="1" as="geometry">
            <mxPoint x="1260" y="576" as="sourcePoint" />
            <mxPoint x="1300" y="574" as="targetPoint" />
          </mxGeometry>
        </mxCell>
        <mxCell id="Qv5DYJu_NGLK9d-pOGgD-44" value="" style="endArrow=none;html=1;rounded=0;" parent="1" source="Qv5DYJu_NGLK9d-pOGgD-31" target="Qv5DYJu_NGLK9d-pOGgD-34" edge="1">
          <mxGeometry width="50" height="50" relative="1" as="geometry">
            <mxPoint x="1247" y="610" as="sourcePoint" />
            <mxPoint x="1328" y="662" as="targetPoint" />
          </mxGeometry>
        </mxCell>
        <mxCell id="I_zGrt05Nn_4fMYfp5kU-2" value="Order Media&amp;nbsp;" style="rounded=1;whiteSpace=wrap;html=1;" parent="1" vertex="1">
          <mxGeometry x="660" y="620" width="120" height="60" as="geometry" />
        </mxCell>
        <mxCell id="I_zGrt05Nn_4fMYfp5kU-5" value="Is" style="rhombus;whiteSpace=wrap;html=1;" parent="1" vertex="1">
          <mxGeometry x="640" y="485" width="130" height="80" as="geometry" />
        </mxCell>
        <mxCell id="I_zGrt05Nn_4fMYfp5kU-6" value="" style="endArrow=classic;html=1;rounded=0;" parent="1" source="XvCOI-l9SwH52kkt3zpC-10" target="I_zGrt05Nn_4fMYfp5kU-5" edge="1">
          <mxGeometry width="50" height="50" relative="1" as="geometry">
            <mxPoint x="340" y="313" as="sourcePoint" />
            <mxPoint x="405" y="317" as="targetPoint" />
          </mxGeometry>
        </mxCell>
        <mxCell id="I_zGrt05Nn_4fMYfp5kU-7" value="" style="endArrow=none;html=1;rounded=0;" parent="1" source="I_zGrt05Nn_4fMYfp5kU-2" target="I_zGrt05Nn_4fMYfp5kU-5" edge="1">
          <mxGeometry width="50" height="50" relative="1" as="geometry">
            <mxPoint x="608" y="375" as="sourcePoint" />
            <mxPoint x="666" y="300" as="targetPoint" />
          </mxGeometry>
        </mxCell>
        <mxCell id="I_zGrt05Nn_4fMYfp5kU-8" value="Price" style="ellipse;whiteSpace=wrap;html=1;" parent="1" vertex="1">
          <mxGeometry x="810" y="620" width="120" height="80" as="geometry" />
        </mxCell>
        <mxCell id="I_zGrt05Nn_4fMYfp5kU-9" value="Quantity&amp;nbsp;" style="ellipse;whiteSpace=wrap;html=1;" parent="1" vertex="1">
          <mxGeometry x="490" y="620" width="120" height="80" as="geometry" />
        </mxCell>
        <mxCell id="I_zGrt05Nn_4fMYfp5kU-10" value="" style="endArrow=none;html=1;rounded=0;" parent="1" source="I_zGrt05Nn_4fMYfp5kU-9" target="I_zGrt05Nn_4fMYfp5kU-2" edge="1">
          <mxGeometry width="50" height="50" relative="1" as="geometry">
            <mxPoint x="608" y="375" as="sourcePoint" />
            <mxPoint x="666" y="300" as="targetPoint" />
          </mxGeometry>
        </mxCell>
        <mxCell id="I_zGrt05Nn_4fMYfp5kU-11" value="" style="endArrow=none;html=1;rounded=0;" parent="1" source="I_zGrt05Nn_4fMYfp5kU-8" target="I_zGrt05Nn_4fMYfp5kU-2" edge="1">
          <mxGeometry width="50" height="50" relative="1" as="geometry">
            <mxPoint x="618" y="385" as="sourcePoint" />
            <mxPoint x="676" y="310" as="targetPoint" />
          </mxGeometry>
        </mxCell>
        <mxCell id="I_zGrt05Nn_4fMYfp5kU-71" style="rounded=0;orthogonalLoop=1;jettySize=auto;html=1;exitX=0.5;exitY=1;exitDx=0;exitDy=0;" parent="1" source="I_zGrt05Nn_4fMYfp5kU-12" target="I_zGrt05Nn_4fMYfp5kU-67" edge="1">
          <mxGeometry relative="1" as="geometry" />
        </mxCell>
        <mxCell id="I_zGrt05Nn_4fMYfp5kU-12" value="Order&amp;nbsp;&amp;nbsp;" style="rounded=1;whiteSpace=wrap;html=1;" parent="1" vertex="1">
          <mxGeometry x="340" y="750" width="120" height="60" as="geometry" />
        </mxCell>
        <mxCell id="I_zGrt05Nn_4fMYfp5kU-13" value="has&amp;nbsp;" style="rhombus;whiteSpace=wrap;html=1;" parent="1" vertex="1">
          <mxGeometry x="490" y="730" width="130" height="80" as="geometry" />
        </mxCell>
        <mxCell id="I_zGrt05Nn_4fMYfp5kU-16" value="" style="endArrow=classic;html=1;rounded=0;" parent="1" source="I_zGrt05Nn_4fMYfp5kU-12" target="I_zGrt05Nn_4fMYfp5kU-13" edge="1">
          <mxGeometry width="50" height="50" relative="1" as="geometry">
            <mxPoint x="693" y="300" as="sourcePoint" />
            <mxPoint x="711" y="497" as="targetPoint" />
          </mxGeometry>
        </mxCell>
        <mxCell id="I_zGrt05Nn_4fMYfp5kU-17" value="" style="endArrow=none;html=1;rounded=0;" parent="1" source="I_zGrt05Nn_4fMYfp5kU-13" target="I_zGrt05Nn_4fMYfp5kU-2" edge="1">
          <mxGeometry width="50" height="50" relative="1" as="geometry">
            <mxPoint x="620" y="667" as="sourcePoint" />
            <mxPoint x="670" y="664" as="targetPoint" />
          </mxGeometry>
        </mxCell>
        <mxCell id="I_zGrt05Nn_4fMYfp5kU-18" value="Id&amp;nbsp;" style="ellipse;whiteSpace=wrap;html=1;" parent="1" vertex="1">
          <mxGeometry x="200" y="610" width="120" height="80" as="geometry" />
        </mxCell>
        <mxCell id="I_zGrt05Nn_4fMYfp5kU-19" value="Fee" style="ellipse;whiteSpace=wrap;html=1;" parent="1" vertex="1">
          <mxGeometry x="350" y="565" width="120" height="80" as="geometry" />
        </mxCell>
        <mxCell id="I_zGrt05Nn_4fMYfp5kU-21" value="" style="endArrow=none;html=1;rounded=0;" parent="1" source="I_zGrt05Nn_4fMYfp5kU-18" target="I_zGrt05Nn_4fMYfp5kU-12" edge="1">
          <mxGeometry width="50" height="50" relative="1" as="geometry">
            <mxPoint x="645" y="782" as="sourcePoint" />
            <mxPoint x="709" y="690" as="targetPoint" />
          </mxGeometry>
        </mxCell>
        <mxCell id="I_zGrt05Nn_4fMYfp5kU-22" value="" style="endArrow=none;html=1;rounded=0;" parent="1" source="I_zGrt05Nn_4fMYfp5kU-19" target="I_zGrt05Nn_4fMYfp5kU-12" edge="1">
          <mxGeometry width="50" height="50" relative="1" as="geometry">
            <mxPoint x="370" y="720" as="sourcePoint" />
            <mxPoint x="397" y="780" as="targetPoint" />
          </mxGeometry>
        </mxCell>
        <mxCell id="I_zGrt05Nn_4fMYfp5kU-23" value="has&amp;nbsp;" style="rhombus;whiteSpace=wrap;html=1;" parent="1" vertex="1">
          <mxGeometry x="470" y="870" width="130" height="80" as="geometry" />
        </mxCell>
        <mxCell id="I_zGrt05Nn_4fMYfp5kU-24" value="has&amp;nbsp;" style="rhombus;whiteSpace=wrap;html=1;" parent="1" vertex="1">
          <mxGeometry x="-220" y="730" width="130" height="80" as="geometry" />
        </mxCell>
        <mxCell id="I_zGrt05Nn_4fMYfp5kU-25" value="" style="endArrow=classic;html=1;rounded=0;entryX=0.249;entryY=0.348;entryDx=0;entryDy=0;entryPerimeter=0;" parent="1" source="I_zGrt05Nn_4fMYfp5kU-12" target="I_zGrt05Nn_4fMYfp5kU-23" edge="1">
          <mxGeometry width="50" height="50" relative="1" as="geometry">
            <mxPoint x="450" y="780" as="sourcePoint" />
            <mxPoint x="500" y="780" as="targetPoint" />
          </mxGeometry>
        </mxCell>
        <mxCell id="I_zGrt05Nn_4fMYfp5kU-26" value="Delivery&amp;nbsp; Info&amp;nbsp;" style="rounded=1;whiteSpace=wrap;html=1;" parent="1" vertex="1">
          <mxGeometry x="700" y="890" width="120" height="60" as="geometry" />
        </mxCell>
        <mxCell id="I_zGrt05Nn_4fMYfp5kU-28" value="province&amp;nbsp;" style="ellipse;whiteSpace=wrap;html=1;" parent="1" vertex="1">
          <mxGeometry x="830" y="800" width="120" height="80" as="geometry" />
        </mxCell>
        <mxCell id="I_zGrt05Nn_4fMYfp5kU-29" value="name&amp;nbsp;" style="ellipse;whiteSpace=wrap;html=1;" parent="1" vertex="1">
          <mxGeometry x="630" y="790" width="120" height="80" as="geometry" />
        </mxCell>
        <mxCell id="I_zGrt05Nn_4fMYfp5kU-30" value="instruction&amp;nbsp;" style="ellipse;whiteSpace=wrap;html=1;" parent="1" vertex="1">
          <mxGeometry x="880" y="1010" width="120" height="80" as="geometry" />
        </mxCell>
        <mxCell id="I_zGrt05Nn_4fMYfp5kU-31" value="address&amp;nbsp;" style="ellipse;whiteSpace=wrap;html=1;" parent="1" vertex="1">
          <mxGeometry x="870" y="900" width="120" height="80" as="geometry" />
        </mxCell>
        <mxCell id="I_zGrt05Nn_4fMYfp5kU-34" value="" style="endArrow=none;html=1;rounded=0;" parent="1" source="I_zGrt05Nn_4fMYfp5kU-26" target="I_zGrt05Nn_4fMYfp5kU-29" edge="1">
          <mxGeometry width="50" height="50" relative="1" as="geometry">
            <mxPoint x="595" y="758" as="sourcePoint" />
            <mxPoint x="689" y="690" as="targetPoint" />
          </mxGeometry>
        </mxCell>
        <mxCell id="I_zGrt05Nn_4fMYfp5kU-35" value="" style="endArrow=none;html=1;rounded=0;" parent="1" source="I_zGrt05Nn_4fMYfp5kU-26" target="I_zGrt05Nn_4fMYfp5kU-28" edge="1">
          <mxGeometry width="50" height="50" relative="1" as="geometry">
            <mxPoint x="747" y="900" as="sourcePoint" />
            <mxPoint x="728" y="876" as="targetPoint" />
          </mxGeometry>
        </mxCell>
        <mxCell id="I_zGrt05Nn_4fMYfp5kU-36" value="" style="endArrow=none;html=1;rounded=0;" parent="1" source="I_zGrt05Nn_4fMYfp5kU-26" target="I_zGrt05Nn_4fMYfp5kU-31" edge="1">
          <mxGeometry width="50" height="50" relative="1" as="geometry">
            <mxPoint x="819" y="900" as="sourcePoint" />
            <mxPoint x="856" y="877" as="targetPoint" />
          </mxGeometry>
        </mxCell>
        <mxCell id="I_zGrt05Nn_4fMYfp5kU-37" value="" style="endArrow=none;html=1;rounded=0;" parent="1" source="I_zGrt05Nn_4fMYfp5kU-26" target="I_zGrt05Nn_4fMYfp5kU-30" edge="1">
          <mxGeometry width="50" height="50" relative="1" as="geometry">
            <mxPoint x="830" y="937" as="sourcePoint" />
            <mxPoint x="881" y="943" as="targetPoint" />
          </mxGeometry>
        </mxCell>
        <mxCell id="I_zGrt05Nn_4fMYfp5kU-38" value="" style="endArrow=none;html=1;rounded=0;" parent="1" source="I_zGrt05Nn_4fMYfp5kU-23" target="I_zGrt05Nn_4fMYfp5kU-26" edge="1">
          <mxGeometry width="50" height="50" relative="1" as="geometry">
            <mxPoint x="747" y="900" as="sourcePoint" />
            <mxPoint x="728" y="876" as="targetPoint" />
          </mxGeometry>
        </mxCell>
        <mxCell id="I_zGrt05Nn_4fMYfp5kU-39" value="Is" style="rhombus;whiteSpace=wrap;html=1;" parent="1" vertex="1">
          <mxGeometry x="715" y="1000" width="130" height="80" as="geometry" />
        </mxCell>
        <mxCell id="I_zGrt05Nn_4fMYfp5kU-40" value="" style="endArrow=classic;html=1;rounded=0;" parent="1" source="I_zGrt05Nn_4fMYfp5kU-26" target="I_zGrt05Nn_4fMYfp5kU-39" edge="1">
          <mxGeometry width="50" height="50" relative="1" as="geometry">
            <mxPoint x="426" y="810" as="sourcePoint" />
            <mxPoint x="542" y="908" as="targetPoint" />
          </mxGeometry>
        </mxCell>
        <mxCell id="I_zGrt05Nn_4fMYfp5kU-41" value="rush delivery&amp;nbsp; Info&amp;nbsp;" style="rounded=1;whiteSpace=wrap;html=1;" parent="1" vertex="1">
          <mxGeometry x="750" y="1110" width="120" height="60" as="geometry" />
        </mxCell>
        <mxCell id="I_zGrt05Nn_4fMYfp5kU-42" value="" style="endArrow=none;html=1;rounded=0;" parent="1" source="I_zGrt05Nn_4fMYfp5kU-39" target="I_zGrt05Nn_4fMYfp5kU-41" edge="1">
          <mxGeometry width="50" height="50" relative="1" as="geometry">
            <mxPoint x="635" y="923" as="sourcePoint" />
            <mxPoint x="710" y="927" as="targetPoint" />
          </mxGeometry>
        </mxCell>
        <mxCell id="I_zGrt05Nn_4fMYfp5kU-44" value="instruction&amp;nbsp;" style="ellipse;whiteSpace=wrap;html=1;" parent="1" vertex="1">
          <mxGeometry x="910" y="1110" width="120" height="80" as="geometry" />
        </mxCell>
        <mxCell id="I_zGrt05Nn_4fMYfp5kU-45" value="Time&amp;nbsp;" style="ellipse;whiteSpace=wrap;html=1;" parent="1" vertex="1">
          <mxGeometry x="590" y="1100" width="120" height="80" as="geometry" />
        </mxCell>
        <mxCell id="I_zGrt05Nn_4fMYfp5kU-46" value="" style="endArrow=none;html=1;rounded=0;" parent="1" source="I_zGrt05Nn_4fMYfp5kU-45" target="I_zGrt05Nn_4fMYfp5kU-41" edge="1">
          <mxGeometry width="50" height="50" relative="1" as="geometry">
            <mxPoint x="800" y="1084" as="sourcePoint" />
            <mxPoint x="811" y="1120" as="targetPoint" />
          </mxGeometry>
        </mxCell>
        <mxCell id="I_zGrt05Nn_4fMYfp5kU-47" value="" style="endArrow=none;html=1;rounded=0;" parent="1" source="I_zGrt05Nn_4fMYfp5kU-41" target="I_zGrt05Nn_4fMYfp5kU-44" edge="1">
          <mxGeometry width="50" height="50" relative="1" as="geometry">
            <mxPoint x="780" y="1150" as="sourcePoint" />
            <mxPoint x="760" y="1150" as="targetPoint" />
          </mxGeometry>
        </mxCell>
        <mxCell id="I_zGrt05Nn_4fMYfp5kU-48" value="Invoice&amp;nbsp;" style="rounded=1;whiteSpace=wrap;html=1;" parent="1" vertex="1">
          <mxGeometry x="-20" y="735" width="120" height="60" as="geometry" />
        </mxCell>
        <mxCell id="I_zGrt05Nn_4fMYfp5kU-49" value="has&amp;nbsp;" style="rhombus;whiteSpace=wrap;html=1;" parent="1" vertex="1">
          <mxGeometry x="165" y="740" width="130" height="80" as="geometry" />
        </mxCell>
        <mxCell id="I_zGrt05Nn_4fMYfp5kU-50" value="" style="endArrow=classic;html=1;rounded=0;" parent="1" source="I_zGrt05Nn_4fMYfp5kU-12" target="I_zGrt05Nn_4fMYfp5kU-49" edge="1">
          <mxGeometry width="50" height="50" relative="1" as="geometry">
            <mxPoint x="186.695652173913" y="720" as="sourcePoint" />
            <mxPoint x="290" y="828" as="targetPoint" />
          </mxGeometry>
        </mxCell>
        <mxCell id="I_zGrt05Nn_4fMYfp5kU-51" value="" style="endArrow=none;html=1;rounded=0;" parent="1" source="I_zGrt05Nn_4fMYfp5kU-48" target="I_zGrt05Nn_4fMYfp5kU-49" edge="1">
          <mxGeometry width="50" height="50" relative="1" as="geometry">
            <mxPoint x="150" y="775.8620689655172" as="sourcePoint" />
            <mxPoint x="380" y="760" as="targetPoint" />
          </mxGeometry>
        </mxCell>
        <mxCell id="I_zGrt05Nn_4fMYfp5kU-54" value="Amount&amp;nbsp;" style="ellipse;whiteSpace=wrap;html=1;" parent="1" vertex="1">
          <mxGeometry x="-90" y="620" width="120" height="80" as="geometry" />
        </mxCell>
        <mxCell id="I_zGrt05Nn_4fMYfp5kU-55" value="Create time&amp;nbsp;" style="ellipse;whiteSpace=wrap;html=1;" parent="1" vertex="1">
          <mxGeometry x="-400" y="820" width="120" height="80" as="geometry" />
        </mxCell>
        <mxCell id="I_zGrt05Nn_4fMYfp5kU-57" value="" style="endArrow=none;html=1;rounded=0;" parent="1" source="I_zGrt05Nn_4fMYfp5kU-54" target="I_zGrt05Nn_4fMYfp5kU-48" edge="1">
          <mxGeometry width="50" height="50" relative="1" as="geometry">
            <mxPoint x="-220" y="820" as="sourcePoint" />
            <mxPoint x="-170" y="770" as="targetPoint" />
          </mxGeometry>
        </mxCell>
        <mxCell id="I_zGrt05Nn_4fMYfp5kU-58" value="" style="endArrow=classic;html=1;rounded=0;" parent="1" source="I_zGrt05Nn_4fMYfp5kU-48" target="I_zGrt05Nn_4fMYfp5kU-24" edge="1">
          <mxGeometry width="50" height="50" relative="1" as="geometry">
            <mxPoint x="350" y="790" as="sourcePoint" />
            <mxPoint x="305" y="790" as="targetPoint" />
          </mxGeometry>
        </mxCell>
        <mxCell id="I_zGrt05Nn_4fMYfp5kU-59" value="Payment Transaction&amp;nbsp;" style="rounded=1;whiteSpace=wrap;html=1;" parent="1" vertex="1">
          <mxGeometry x="-220" y="840" width="120" height="60" as="geometry" />
        </mxCell>
        <mxCell id="I_zGrt05Nn_4fMYfp5kU-60" value="" style="endArrow=none;html=1;rounded=0;" parent="1" source="I_zGrt05Nn_4fMYfp5kU-59" target="I_zGrt05Nn_4fMYfp5kU-24" edge="1">
          <mxGeometry width="50" height="50" relative="1" as="geometry">
            <mxPoint x="-410" y="876.5" as="sourcePoint" />
            <mxPoint x="-121" y="803.5" as="targetPoint" />
          </mxGeometry>
        </mxCell>
        <mxCell id="I_zGrt05Nn_4fMYfp5kU-63" value="Method&amp;nbsp;" style="ellipse;whiteSpace=wrap;html=1;" parent="1" vertex="1">
          <mxGeometry x="-10" y="850" width="120" height="80" as="geometry" />
        </mxCell>
        <mxCell id="I_zGrt05Nn_4fMYfp5kU-64" value="" style="endArrow=none;html=1;rounded=0;" parent="1" source="I_zGrt05Nn_4fMYfp5kU-55" target="I_zGrt05Nn_4fMYfp5kU-59" edge="1">
          <mxGeometry width="50" height="50" relative="1" as="geometry">
            <mxPoint x="70" y="783" as="sourcePoint" />
            <mxPoint x="179" y="787" as="targetPoint" />
          </mxGeometry>
        </mxCell>
        <mxCell id="I_zGrt05Nn_4fMYfp5kU-65" value="" style="endArrow=none;html=1;rounded=0;" parent="1" source="I_zGrt05Nn_4fMYfp5kU-59" target="I_zGrt05Nn_4fMYfp5kU-63" edge="1">
          <mxGeometry width="50" height="50" relative="1" as="geometry">
            <mxPoint x="-270" y="873" as="sourcePoint" />
            <mxPoint x="-210" y="877" as="targetPoint" />
          </mxGeometry>
        </mxCell>
        <mxCell id="I_zGrt05Nn_4fMYfp5kU-67" value="has&amp;nbsp;" style="rhombus;whiteSpace=wrap;html=1;" parent="1" vertex="1">
          <mxGeometry x="280" y="890" width="130" height="80" as="geometry" />
        </mxCell>
        <mxCell id="I_zGrt05Nn_4fMYfp5kU-73" value="User&amp;nbsp;" style="rounded=1;whiteSpace=wrap;html=1;" parent="1" vertex="1">
          <mxGeometry x="165" y="1020" width="120" height="60" as="geometry" />
        </mxCell>
        <mxCell id="I_zGrt05Nn_4fMYfp5kU-76" value="Name&amp;nbsp;" style="ellipse;whiteSpace=wrap;html=1;" parent="1" vertex="1">
          <mxGeometry x="360" y="1100" width="120" height="80" as="geometry" />
        </mxCell>
        <mxCell id="I_zGrt05Nn_4fMYfp5kU-79" value="" style="endArrow=none;html=1;rounded=0;" parent="1" source="I_zGrt05Nn_4fMYfp5kU-73" target="I_zGrt05Nn_4fMYfp5kU-67" edge="1">
          <mxGeometry width="50" height="50" relative="1" as="geometry">
            <mxPoint x="-90" y="886" as="sourcePoint" />
            <mxPoint x="1" y="894" as="targetPoint" />
          </mxGeometry>
        </mxCell>
        <mxCell id="I_zGrt05Nn_4fMYfp5kU-80" value="" style="endArrow=none;html=1;rounded=0;" parent="1" source="I_zGrt05Nn_4fMYfp5kU-73" target="I_zGrt05Nn_4fMYfp5kU-76" edge="1">
          <mxGeometry width="50" height="50" relative="1" as="geometry">
            <mxPoint x="258" y="990" as="sourcePoint" />
            <mxPoint x="320" y="958" as="targetPoint" />
          </mxGeometry>
        </mxCell>
        <mxCell id="I_zGrt05Nn_4fMYfp5kU-82" value="Is" style="rhombus;whiteSpace=wrap;html=1;" parent="1" vertex="1">
          <mxGeometry x="45" y="1100" width="130" height="80" as="geometry" />
        </mxCell>
        <mxCell id="I_zGrt05Nn_4fMYfp5kU-83" style="rounded=0;orthogonalLoop=1;jettySize=auto;html=1;" parent="1" source="I_zGrt05Nn_4fMYfp5kU-73" target="I_zGrt05Nn_4fMYfp5kU-82" edge="1">
          <mxGeometry relative="1" as="geometry">
            <mxPoint x="410" y="820" as="sourcePoint" />
            <mxPoint x="369" y="909" as="targetPoint" />
          </mxGeometry>
        </mxCell>
        <mxCell id="I_zGrt05Nn_4fMYfp5kU-84" value="Admin" style="rounded=1;whiteSpace=wrap;html=1;" parent="1" vertex="1">
          <mxGeometry x="-100" y="1190" width="120" height="60" as="geometry" />
        </mxCell>
        <mxCell id="I_zGrt05Nn_4fMYfp5kU-85" value="" style="endArrow=none;html=1;rounded=0;" parent="1" source="I_zGrt05Nn_4fMYfp5kU-82" target="I_zGrt05Nn_4fMYfp5kU-84" edge="1">
          <mxGeometry width="50" height="50" relative="1" as="geometry">
            <mxPoint x="295" y="1088" as="sourcePoint" />
            <mxPoint x="381" y="1127" as="targetPoint" />
          </mxGeometry>
        </mxCell>
        <mxCell id="I_zGrt05Nn_4fMYfp5kU-86" value="has&amp;nbsp;" style="rhombus;whiteSpace=wrap;html=1;" parent="1" vertex="1">
          <mxGeometry x="-10" y="990" width="130" height="80" as="geometry" />
        </mxCell>
        <mxCell id="I_zGrt05Nn_4fMYfp5kU-87" style="rounded=0;orthogonalLoop=1;jettySize=auto;html=1;entryX=0.826;entryY=0.338;entryDx=0;entryDy=0;entryPerimeter=0;" parent="1" source="I_zGrt05Nn_4fMYfp5kU-73" target="I_zGrt05Nn_4fMYfp5kU-86" edge="1">
          <mxGeometry relative="1" as="geometry">
            <mxPoint x="410" y="820" as="sourcePoint" />
            <mxPoint x="369" y="909" as="targetPoint" />
          </mxGeometry>
        </mxCell>
        <mxCell id="I_zGrt05Nn_4fMYfp5kU-88" value="Card&amp;nbsp;" style="rounded=1;whiteSpace=wrap;html=1;" parent="1" vertex="1">
          <mxGeometry x="-180" y="1000" width="120" height="60" as="geometry" />
        </mxCell>
        <mxCell id="I_zGrt05Nn_4fMYfp5kU-89" value="" style="endArrow=none;html=1;rounded=0;" parent="1" source="I_zGrt05Nn_4fMYfp5kU-86" target="I_zGrt05Nn_4fMYfp5kU-88" edge="1">
          <mxGeometry width="50" height="50" relative="1" as="geometry">
            <mxPoint x="85" y="1169" as="sourcePoint" />
            <mxPoint x="26" y="1200" as="targetPoint" />
          </mxGeometry>
        </mxCell>
        <mxCell id="I_zGrt05Nn_4fMYfp5kU-91" value="Code&amp;nbsp;" style="ellipse;whiteSpace=wrap;html=1;" parent="1" vertex="1">
          <mxGeometry x="-380" y="1070" width="120" height="80" as="geometry" />
        </mxCell>
        <mxCell id="I_zGrt05Nn_4fMYfp5kU-92" value="owner&amp;nbsp;&lt;br&gt;" style="ellipse;whiteSpace=wrap;html=1;" parent="1" vertex="1">
          <mxGeometry x="-170" y="1090" width="120" height="80" as="geometry" />
        </mxCell>
        <mxCell id="I_zGrt05Nn_4fMYfp5kU-93" value="expired date&amp;nbsp;" style="ellipse;whiteSpace=wrap;html=1;" parent="1" vertex="1">
          <mxGeometry x="-390" y="960" width="120" height="80" as="geometry" />
        </mxCell>
        <mxCell id="I_zGrt05Nn_4fMYfp5kU-94" value="" style="endArrow=none;html=1;rounded=0;" parent="1" source="I_zGrt05Nn_4fMYfp5kU-88" target="I_zGrt05Nn_4fMYfp5kU-93" edge="1">
          <mxGeometry width="50" height="50" relative="1" as="geometry">
            <mxPoint y="1040" as="sourcePoint" />
            <mxPoint x="-50" y="1040" as="targetPoint" />
          </mxGeometry>
        </mxCell>
        <mxCell id="I_zGrt05Nn_4fMYfp5kU-96" value="" style="endArrow=none;html=1;rounded=0;" parent="1" source="I_zGrt05Nn_4fMYfp5kU-88" target="I_zGrt05Nn_4fMYfp5kU-91" edge="1">
          <mxGeometry width="50" height="50" relative="1" as="geometry">
            <mxPoint x="-170" y="1031" as="sourcePoint" />
            <mxPoint x="-261" y="1018" as="targetPoint" />
          </mxGeometry>
        </mxCell>
        <mxCell id="I_zGrt05Nn_4fMYfp5kU-97" value="" style="endArrow=none;html=1;rounded=0;" parent="1" source="I_zGrt05Nn_4fMYfp5kU-88" target="I_zGrt05Nn_4fMYfp5kU-92" edge="1">
          <mxGeometry width="50" height="50" relative="1" as="geometry">
            <mxPoint x="-170" y="1064" as="sourcePoint" />
            <mxPoint x="-259" y="1099" as="targetPoint" />
          </mxGeometry>
        </mxCell>
        <mxCell id="I_zGrt05Nn_4fMYfp5kU-99" style="rounded=0;orthogonalLoop=1;jettySize=auto;html=1;" parent="1" source="I_zGrt05Nn_4fMYfp5kU-59" target="I_zGrt05Nn_4fMYfp5kU-88" edge="1">
          <mxGeometry relative="1" as="geometry">
            <mxPoint x="175" y="1045" as="sourcePoint" />
            <mxPoint x="107" y="1027" as="targetPoint" />
          </mxGeometry>
        </mxCell>
      </root>
    </mxGraphModel>
  </diagram>
</mxfile>
